# xmcd
#
# Track frame offsets:
#	150
#	14182
#	25954
#	39386
#	55603
#	72045
#	84029
#	98623
#	114453
#	127725
#	141100
#	157010
#	172722
#	188469
#	208456
#	221388
#	239768
#	251680
#	267399
#	284488
#	299845
#
# Disc length: 4185 seconds
#
# Revision: 0
# Processed by: cddbd v1.5.2PL0 Copyright (c) Steve Scherf et al.
# Submitted via: EasyCDDAExtractor 15.2.5.1
#
DISCID=32105715
DTITLE=區瑞強 - 民歌味道  
DYEAR=1982
DGENRE=Alternative
TTITLE0=陌上歸人
TTITLE1=相識在童年
TTITLE2=那天再重聚
TTITLE3=漁火閃閃
TTITLE4=青葱
TTITLE5=愛神的影子
TTITLE6=愛在陽光空氣中
TTITLE7=擁抱大自然
TTITLE8=雲外千峰
TTITLE9=水霞
TTITLE10=温情
TTITLE11=城市民歌
TTITLE12=客從何處來
TTITLE13=愛之園
TTITLE14=少年夢
TTITLE15=When A Child Is Born(zacar-fjoy)
TTITLE16=又見月明
TTITLE17=靚歌伴星诃
TTITLE18=點滴情懷
TTITLE19=原野的我
TTITLE20=輕歌伴早晨
EXTD=
EXTT0=
EXTT1=
EXTT2=
EXTT3=
EXTT4=
EXTT5=
EXTT6=
EXTT7=
EXTT8=
EXTT9=
EXTT10=
EXTT11=
EXTT12=
EXTT13=
EXTT14=
EXTT15=
EXTT16=
EXTT17=
EXTT18=
EXTT19=
EXTT20=
PLAYORDER=
